<?xml version="1.0" standalone="no"?>
<!DOCTYPE svg PUBLIC "-//W3C//DTD SVG 20010904//EN"
 "http://www.w3.org/TR/2001/REC-SVG-20010904/DTD/svg10.dtd">
<svg version="1.0" xmlns="http://www.w3.org/2000/svg"
 width="512.000000pt" height="512.000000pt" viewBox="0 0 512.000000 512.000000"
 preserveAspectRatio="xMidYMid meet">
<metadata>
Created by potrace 1.14, written by Peter Selinger 2001-2017
</metadata>
<g transform="translate(0.000000,512.000000) scale(0.100000,-0.100000)"
fill="#000000" stroke="none">
<path d="M1277 3604 c-4 -4 -7 -360 -7 -791 0 -619 -3 -783 -12 -784 -7 -1
-19 -1 -25 0 -7 1 -13 -3 -13 -9 0 -6 -4 -9 -9 -6 -13 9 -60 -40 -78 -81 -20
-45 -22 -56 -25 -108 -2 -26 -11 -48 -25 -62 -13 -12 -23 -25 -23 -28 0 -3
-18 -23 -40 -46 -22 -23 -57 -61 -77 -86 -21 -25 -49 -57 -63 -72 -51 -56 -96
-107 -118 -135 -12 -16 -22 -23 -22 -17 0 7 -4 10 -8 7 -5 -3 -18 3 -28 13
-11 10 -27 17 -37 15 -9 -1 -17 3 -17 9 0 7 -5 5 -10 -3 -7 -10 -10 -11 -10
-2 0 15 -32 -1 -68 -36 -65 -62 -85 -203 -41 -284 7 -12 12 -26 11 -31 -1 -4
5 -7 13 -7 8 0 15 -7 15 -17 0 -9 3 -13 7 -10 3 4 13 2 20 -5 15 -12 115 -29
108 -18 -2 3 9 14 26 24 16 9 27 22 24 27 -4 5 -2 9 3 9 5 0 17 19 28 41 17
39 22 109 12 176 -3 22 33 70 125 165 20 21 37 41 37 44 0 12 28 33 35 26 5
-4 5 -2 2 5 -4 6 5 21 19 32 15 12 24 21 20 21 -4 0 10 18 31 39 21 22 48 52
61 66 16 20 22 22 22 11 0 -9 7 -19 15 -22 8 -4 12 -10 9 -15 -3 -5 2 -9 10
-9 9 0 16 -4 16 -9 0 -9 32 -22 60 -25 13 -1 15 -84 18 -673 l2 -671 70 -4
c39 -2 70 0 70 3 0 3 23 3 50 -1 28 -4 50 -4 50 0 0 3 27 3 60 0 33 -3 60 -3
60 1 0 3 18 3 40 -1 22 -4 40 -4 40 0 0 4 18 4 40 0 25 -5 40 -4 40 3 0 5 7 4
15 -3 8 -7 15 -9 15 -4 0 5 33 10 73 10 39 1 87 2 105 3 l32 1 0 64 c0 61 -8
84 -24 68 -7 -6 -601 -12 -621 -5 -7 2 -10 224 -9 641 0 350 1 643 2 651 2 16
25 -9 97 -104 16 -22 34 -45 40 -52 20 -22 53 -68 55 -75 1 -4 19 -26 41 -50
21 -24 39 -49 39 -55 0 -7 3 -13 8 -13 4 0 7 -28 8 -63 0 -73 32 -149 76 -180
34 -25 111 -27 136 -3 10 9 24 16 31 16 7 0 10 4 6 9 -3 5 0 13 5 16 19 11 38
69 42 128 1 15 14 40 28 55 14 16 54 62 90 102 36 41 79 90 95 109 17 19 40
45 53 59 12 14 22 30 22 35 0 6 3 7 7 4 3 -4 16 8 29 26 23 35 50 43 72 21 7
-7 20 -10 29 -7 11 4 14 3 9 -5 -4 -7 12 -3 36 7 l43 18 1 -576 0 -576 -36
-18 c-19 -10 -39 -20 -45 -21 -38 -10 -42 -17 -42 -81 0 -75 7 -79 75 -40 26
15 42 19 43 12 1 -7 2 -41 3 -76 1 -59 3 -65 24 -66 13 -1 25 2 28 7 3 4 11 5
17 1 25 -16 37 -11 38 15 0 15 1 64 2 108 2 74 5 84 27 103 14 11 28 20 32 21
13 0 86 70 176 165 12 13 22 29 22 35 0 6 5 8 10 5 6 -3 10 -1 10 5 0 6 17 37
39 68 43 64 98 169 132 252 12 30 25 59 29 63 6 7 65 -102 89 -165 6 -16 15
-28 21 -28 5 0 10 -6 10 -14 0 -14 134 -282 187 -374 29 -50 98 -144 131 -177
30 -31 62 -56 62 -48 0 3 8 -1 18 -9 33 -28 95 -40 172 -34 99 7 110 9 110 18
0 4 6 8 13 8 6 1 23 10 36 20 23 20 23 22 10 68 -7 26 -12 51 -11 56 2 5 -7 2
-20 -7 -106 -76 -240 -64 -334 29 -36 36 -88 115 -137 204 -49 91 -311 615
-310 620 8 38 16 81 20 107 3 18 8 31 12 29 3 -2 6 12 7 32 0 21 4 53 7 72 4
19 10 69 13 109 3 41 6 77 6 80 2 21 -8 26 -54 26 -37 -1 -52 -5 -53 -15 -1
-8 -5 -46 -9 -85 -7 -71 -26 -195 -30 -195 -2 0 -31 57 -66 128 -35 70 -68
130 -73 133 -5 3 -8 9 -8 13 1 12 -33 76 -41 76 -4 0 -8 7 -8 15 0 8 -4 15
-10 15 -5 0 -10 6 -10 13 0 6 -27 39 -60 72 l-59 60 24 25 c14 14 25 29 25 33
0 4 10 19 23 33 51 56 57 64 52 64 -3 0 3 8 13 18 9 11 26 32 37 47 11 16 25
33 30 39 6 6 30 38 55 71 24 33 50 66 57 73 7 7 13 18 13 23 0 6 7 9 15 7 12
-2 17 -22 21 -83 8 -130 9 -136 24 -145 9 -5 19 -5 27 2 9 7 17 7 26 0 22 -19
43 9 41 53 -1 22 -3 40 -4 40 -1 0 -3 23 -5 50 -1 28 -5 57 -9 66 -4 9 -6 20
-5 25 1 5 0 11 -1 14 -4 11 -10 47 -14 81 -3 28 1 42 20 62 13 14 24 29 24 33
0 3 14 23 31 43 61 73 67 81 62 81 -3 0 7 12 22 28 15 15 35 38 43 52 21 33
101 138 130 170 12 14 22 30 22 37 0 7 4 13 8 13 5 0 24 21 43 48 18 26 42 56
52 67 10 11 26 32 35 48 9 15 20 27 24 27 4 0 8 6 8 14 0 8 4 16 8 18 7 2 94
114 214 273 4 6 19 25 34 43 28 35 31 34 -59 36 -51 1 -59 -1 -74 -24 -9 -14
-21 -30 -27 -37 -27 -30 -36 -43 -36 -48 0 -3 -8 -13 -17 -23 -33 -35 -53 -62
-46 -62 4 0 -3 -7 -15 -16 -12 -8 -22 -21 -22 -28 0 -8 -7 -17 -16 -20 -8 -3
-13 -10 -10 -15 3 -5 0 -11 -7 -14 -7 -3 -32 -33 -55 -67 -23 -35 -42 -59 -42
-54 0 5 -6 0 -12 -11 -6 -11 -66 -91 -132 -178 -67 -87 -133 -175 -147 -197
-14 -22 -29 -37 -33 -33 -3 3 -6 1 -6 -5 0 -6 -6 -17 -12 -24 -7 -8 -18 -22
-24 -33 -6 -10 -17 -21 -25 -23 -8 -3 -11 -1 -7 3 4 5 4 13 -1 19 -5 6 -16 38
-26 71 -19 66 -101 244 -137 297 -82 118 -219 268 -247 268 -6 0 -11 3 -11 8
0 4 -18 18 -40 32 -22 14 -41 27 -41 30 -1 3 -3 37 -5 75 -1 39 -3 80 -3 92
-1 19 -6 21 -53 19 l-53 -3 1 -56 c2 -50 0 -57 -17 -57 -10 0 -19 4 -19 10 0
5 -3 9 -7 8 -5 -1 -21 4 -36 10 -16 7 -32 12 -36 12 -5 0 -8 -28 -7 -62 1 -57
3 -62 31 -78 17 -10 33 -15 38 -13 4 2 7 -1 7 -7 0 -6 4 -9 9 -6 5 3 15 -2 22
-11 12 -13 14 -129 14 -643 l0 -628 -25 10 c-32 13 -70 17 -70 9 0 -4 -9 -7
-20 -8 -30 -2 -88 -70 -80 -92 1 -2 -3 -7 -10 -11 -17 -10 -23 -107 -10 -161
10 -42 9 -50 -7 -66 -19 -20 -114 -129 -148 -170 -11 -14 -39 -45 -62 -69 -22
-24 -39 -44 -36 -44 4 0 -6 -10 -20 -23 -15 -12 -27 -28 -27 -35 0 -7 -7 -6
-20 5 -11 10 -20 21 -20 26 0 23 -63 58 -106 59 -34 1 -71 -16 -97 -45 -9 -11
-18 -18 -20 -16 -2 2 -22 27 -45 55 -23 29 -42 55 -42 58 0 3 -8 14 -17 24
-29 30 -63 72 -63 77 0 6 -27 40 -58 71 -13 13 -20 24 -17 24 3 0 -6 12 -20
27 -14 15 -25 32 -26 38 -1 5 -2 24 -4 40 -4 38 -11 69 -23 92 -10 20 -10
1512 0 1528 10 16 571 8 562 -8 -5 -9 -4 -9 6 0 7 6 27 9 46 6 l34 -6 0 61 c0
51 -3 63 -20 72 -15 8 -20 8 -20 -1 0 -7 -4 -8 -12 -2 -7 5 -50 9 -95 8 -46 0
-83 4 -83 8 0 5 -5 5 -12 1 -17 -11 -88 -11 -88 0 0 4 -6 4 -13 -3 -10 -8 -17
-7 -25 1 -7 7 -12 8 -12 2 0 -5 -9 -10 -20 -10 -11 0 -20 4 -20 9 0 5 -6 5
-13 -1 -8 -7 -18 -7 -27 -2 -8 5 -19 6 -24 2 -16 -9 -46 -10 -46 0 0 5 -9 4
-20 -2 -14 -8 -20 -8 -20 0 0 7 -6 8 -18 1 -10 -6 -24 -6 -32 -1 -8 5 -19 6
-24 2 -16 -9 -46 -10 -52 0 -3 4 -14 4 -24 -2 -12 -7 -20 -6 -22 1 -2 6 -7 7
-11 3z m1332 -358 c48 -43 181 -181 181 -188 0 -4 8 -16 18 -26 21 -22 63 -95
104 -182 34 -74 98 -262 98 -289 0 -11 -14 -36 -31 -57 -16 -22 -59 -77 -94
-124 -36 -47 -68 -89 -73 -95 -4 -5 -21 -28 -37 -50 -44 -58 -58 -76 -77 -97
-10 -10 -18 -20 -18 -23 0 -5 -91 -125 -95 -125 -1 0 -2 286 -2 635 1 349 3
635 6 635 2 0 11 -6 20 -14z m-184 -1256 c4 -6 11 -8 16 -4 6 3 13 -3 16 -15
3 -12 9 -21 13 -21 4 0 6 -12 6 -27 -1 -16 2 -38 6 -50 5 -14 3 -23 -3 -23 -6
0 -7 -4 -4 -10 12 -20 -39 -85 -57 -74 -5 3 -8 0 -8 -7 0 -8 -3 -9 -13 0 -8 6
-17 8 -20 4 -4 -3 -7 -1 -7 6 0 7 -4 10 -8 7 -10 -6 -31 29 -37 59 -2 11 -4
21 -5 23 -13 15 6 89 28 112 27 28 66 38 77 20z m-1145 -250 c5 0 14 8 19 18
12 19 14 12 5 -12 -3 -9 -12 -16 -20 -16 -8 0 -14 -6 -14 -14 0 -17 -34 -14
-58 6 -20 17 -42 71 -42 104 0 42 29 91 63 108 l32 15 3 -104 c1 -58 7 -105
12 -105z m30 166 c0 -3 -4 -8 -10 -11 -5 -3 -10 -1 -10 4 0 6 5 11 10 11 6 0
10 -2 10 -4z m1322 -76 c10 0 18 -4 18 -10 0 -5 6 -10 14 -10 7 0 28 -18 47
-41 19 -22 40 -47 47 -54 6 -8 12 -16 12 -19 0 -4 12 -25 27 -49 14 -23 26
-43 25 -45 -1 -1 37 -79 84 -174 85 -170 86 -172 74 -212 -22 -74 -74 -200
-107 -259 -18 -33 -33 -61 -33 -63 0 -13 -103 -139 -157 -191 -111 -109 -100
-170 -98 530 1 337 2 614 3 617 1 2 7 -1 14 -8 7 -7 20 -12 30 -12z m-781
-434 c41 -18 59 -134 28 -183 -17 -28 -61 -47 -88 -38 -25 8 -65 61 -56 75 3
5 2 10 -3 10 -12 0 -4 84 9 88 5 2 9 8 9 14 0 6 9 19 20 28 20 18 48 19 81 6z
m-1181 -78 c0 -4 7 -8 15 -8 19 0 45 -52 47 -93 2 -60 -14 -88 -66 -118 -15
-9 -17 -8 -10 3 6 11 5 11 -9 -1 -12 -9 -17 -10 -17 -2 0 7 -4 9 -10 6 -5 -3
-10 -1 -10 5 0 6 -4 9 -9 6 -10 -7 -48 83 -42 99 2 6 4 22 6 38 3 36 48 77 80
75 14 -1 25 -6 25 -10z"/>
</g>
</svg>
