<svg xmlns="http://www.w3.org/2000/svg" version="1.1" xmlns:xlink="http://www.w3.org/1999/xlink" xmlns:svgjs="http://svgjs.dev/svgjs" width="1440" height="560" preserveAspectRatio="none" viewBox="0 0 1440 560"><g mask="url(&quot;#SvgjsMask1012&quot;)" fill="none"><rect width="1440" height="560" x="0" y="0" fill="rgba(75, 7, 108, 1)"></rect><path d="M259.91 578.62C438.95 578.47 605.85 495.11 970.91 492.92 1335.98 490.73 1493.83 249.98 1681.92 246.52" stroke="rgba(241, 67, 236, 1)" stroke-width="2"></path><path d="M171.65 593.03C303.66 576.14 376.13 277.18 598.29 274.67 820.44 272.16 811.61 344.67 1024.92 344.67 1238.24 344.67 1343.47 274.9 1451.56 274.67" stroke="rgba(241, 67, 236, 1)" stroke-width="2"></path><path d="M350.73 576.51C519.73 571.7 662.51 321.87 977.18 321.73 1291.85 321.59 1443.46 455.38 1603.63 456.13" stroke="rgba(241, 67, 236, 1)" stroke-width="2"></path><path d="M677.81 653.94C779.88 621.18 713.2 344.3 953.8 325.79 1194.41 307.28 1361.56 159.64 1505.79 157.79" stroke="rgba(241, 67, 236, 1)" stroke-width="2"></path><path d="M598 612.25C741.97 550.87 676.08 105.01 959.77 101.33 1243.47 97.65 1496.97 279.2 1683.32 280.53" stroke="rgba(241, 67, 236, 1)" stroke-width="2"></path></g><defs><mask id="SvgjsMask1012"><rect width="1440" height="560" fill="#ffffff"></rect></mask></defs></svg>