<svg id="visual" viewBox="0 0 900 600" width="900" height="600" xmlns="http://www.w3.org/2000/svg" xmlns:xlink="http://www.w3.org/1999/xlink" version="1.1"><g stroke-width="1" stroke-linejoin="bevel"><path d="M376 296L370 211L263 296Z" fill="#0b5583" stroke="#0b5583"></path><path d="M370 211L267 197L263 296Z" fill="#044977" stroke="#044977"></path><path d="M220 218L233 295L263 296Z" fill="#1a6995" stroke="#1a6995"></path><path d="M267 197L220 218L263 296Z" fill="#2477a0" stroke="#2477a0"></path><path d="M334 77L233 123L267 197Z" fill="#074f7d" stroke="#074f7d"></path><path d="M267 197L233 123L220 218Z" fill="#024271" stroke="#024271"></path><path d="M233 295L270 413L263 296Z" fill="#2477a0" stroke="#2477a0"></path><path d="M263 296L270 413L376 296Z" fill="#003c6b" stroke="#003c6b"></path><path d="M270 413L402 401L376 296Z" fill="#2477a0" stroke="#2477a0"></path><path d="M376 296L525 293L370 211Z" fill="#1f709b" stroke="#1f709b"></path><path d="M370 211L334 77L267 197Z" fill="#1f709b" stroke="#1f709b"></path><path d="M370 211L368 80L334 77Z" fill="#1a6995" stroke="#1a6995"></path><path d="M488 89L368 80L370 211Z" fill="#2477a0" stroke="#2477a0"></path><path d="M233 295L177 390L270 413Z" fill="#297ea6" stroke="#297ea6"></path><path d="M95 279L177 390L233 295Z" fill="#15638f" stroke="#15638f"></path><path d="M95 279L233 295L220 218Z" fill="#105c89" stroke="#105c89"></path><path d="M233 123L124 188L220 218Z" fill="#044977" stroke="#044977"></path><path d="M402 401L525 293L376 296Z" fill="#0b5583" stroke="#0b5583"></path><path d="M124 188L95 279L220 218Z" fill="#024271" stroke="#024271"></path><path d="M525 293L533 164L370 211Z" fill="#15638f" stroke="#15638f"></path><path d="M533 164L488 89L370 211Z" fill="#2477a0" stroke="#2477a0"></path><path d="M363 0L326 0L334 77Z" fill="#1f709b" stroke="#1f709b"></path><path d="M402 401L536 376L525 293Z" fill="#074f7d" stroke="#074f7d"></path><path d="M525 293L576 224L533 164Z" fill="#105c89" stroke="#105c89"></path><path d="M264 508L415 489L270 413Z" fill="#074f7d" stroke="#074f7d"></path><path d="M270 413L415 489L402 401Z" fill="#0b5583" stroke="#0b5583"></path><path d="M402 401L415 489L536 376Z" fill="#1a6995" stroke="#1a6995"></path><path d="M197 537L264 508L177 390Z" fill="#0b5583" stroke="#0b5583"></path><path d="M177 390L264 508L270 413Z" fill="#044977" stroke="#044977"></path><path d="M95 279L121 421L177 390Z" fill="#2477a0" stroke="#2477a0"></path><path d="M363 0L334 77L368 80Z" fill="#2477a0" stroke="#2477a0"></path><path d="M334 77L326 0L233 123Z" fill="#0b5583" stroke="#0b5583"></path><path d="M233 123L79 61L124 188Z" fill="#297ea6" stroke="#297ea6"></path><path d="M599 333L576 224L525 293Z" fill="#1f709b" stroke="#1f709b"></path><path d="M597 0L480 0L488 89Z" fill="#0b5583" stroke="#0b5583"></path><path d="M480 0L363 0L368 80Z" fill="#003c6b" stroke="#003c6b"></path><path d="M536 376L599 333L525 293Z" fill="#105c89" stroke="#105c89"></path><path d="M605 394L599 333L536 376Z" fill="#15638f" stroke="#15638f"></path><path d="M326 0L172 0L233 123Z" fill="#0b5583" stroke="#0b5583"></path><path d="M124 188L0 198L95 279Z" fill="#15638f" stroke="#15638f"></path><path d="M601 83L488 89L533 164Z" fill="#105c89" stroke="#105c89"></path><path d="M488 89L480 0L368 80Z" fill="#003c6b" stroke="#003c6b"></path><path d="M121 421L197 537L177 390Z" fill="#15638f" stroke="#15638f"></path><path d="M433 600L526 528L415 489Z" fill="#003c6b" stroke="#003c6b"></path><path d="M172 0L79 61L233 123Z" fill="#105c89" stroke="#105c89"></path><path d="M574 503L605 394L536 376Z" fill="#024271" stroke="#024271"></path><path d="M172 0L128 0L79 61Z" fill="#297ea6" stroke="#297ea6"></path><path d="M79 61L0 198L124 188Z" fill="#297ea6" stroke="#297ea6"></path><path d="M95 279L0 364L121 421Z" fill="#1f709b" stroke="#1f709b"></path><path d="M0 198L0 333L95 279Z" fill="#1a6995" stroke="#1a6995"></path><path d="M121 421L136 538L197 537Z" fill="#15638f" stroke="#15638f"></path><path d="M679 160L601 83L533 164Z" fill="#297ea6" stroke="#297ea6"></path><path d="M679 160L533 164L576 224Z" fill="#003c6b" stroke="#003c6b"></path><path d="M679 160L576 224L722 313Z" fill="#0b5583" stroke="#0b5583"></path><path d="M0 482L136 538L121 421Z" fill="#074f7d" stroke="#074f7d"></path><path d="M0 333L0 364L95 279Z" fill="#2477a0" stroke="#2477a0"></path><path d="M415 489L526 528L536 376Z" fill="#1a6995" stroke="#1a6995"></path><path d="M263 600L415 489L264 508Z" fill="#105c89" stroke="#105c89"></path><path d="M219 600L263 600L197 537Z" fill="#0b5583" stroke="#0b5583"></path><path d="M197 537L263 600L264 508Z" fill="#044977" stroke="#044977"></path><path d="M526 528L574 503L536 376Z" fill="#0b5583" stroke="#0b5583"></path><path d="M136 538L219 600L197 537Z" fill="#105c89" stroke="#105c89"></path><path d="M263 600L433 600L415 489Z" fill="#074f7d" stroke="#074f7d"></path><path d="M526 528L629 600L574 503Z" fill="#15638f" stroke="#15638f"></path><path d="M79 61L0 72L0 198Z" fill="#003c6b" stroke="#003c6b"></path><path d="M0 0L0 72L79 61Z" fill="#074f7d" stroke="#074f7d"></path><path d="M696 123L679 160L808 178Z" fill="#2477a0" stroke="#2477a0"></path><path d="M722 313L576 224L599 333Z" fill="#074f7d" stroke="#074f7d"></path><path d="M698 0L597 0L601 83Z" fill="#074f7d" stroke="#074f7d"></path><path d="M601 83L597 0L488 89Z" fill="#044977" stroke="#044977"></path><path d="M0 364L0 482L121 421Z" fill="#105c89" stroke="#105c89"></path><path d="M136 538L67 600L219 600Z" fill="#024271" stroke="#024271"></path><path d="M433 600L522 600L526 528Z" fill="#0b5583" stroke="#0b5583"></path><path d="M679 160L696 123L601 83Z" fill="#0b5583" stroke="#0b5583"></path><path d="M722 313L599 333L718 404Z" fill="#044977" stroke="#044977"></path><path d="M718 404L605 394L709 518Z" fill="#003c6b" stroke="#003c6b"></path><path d="M718 404L599 333L605 394Z" fill="#044977" stroke="#044977"></path><path d="M128 0L0 0L79 61Z" fill="#297ea6" stroke="#297ea6"></path><path d="M709 518L605 394L574 503Z" fill="#1a6995" stroke="#1a6995"></path><path d="M0 482L67 600L136 538Z" fill="#024271" stroke="#024271"></path><path d="M799 0L698 0L696 123Z" fill="#074f7d" stroke="#074f7d"></path><path d="M696 123L698 0L601 83Z" fill="#0b5583" stroke="#0b5583"></path><path d="M522 600L629 600L526 528Z" fill="#1f709b" stroke="#1f709b"></path><path d="M0 482L0 600L67 600Z" fill="#074f7d" stroke="#074f7d"></path><path d="M629 600L709 518L574 503Z" fill="#044977" stroke="#044977"></path><path d="M718 404L784 383L722 313Z" fill="#15638f" stroke="#15638f"></path><path d="M722 313L808 178L679 160Z" fill="#15638f" stroke="#15638f"></path><path d="M839 471L784 383L718 404Z" fill="#044977" stroke="#044977"></path><path d="M825 319L808 178L722 313Z" fill="#044977" stroke="#044977"></path><path d="M900 323L825 319L900 374Z" fill="#2477a0" stroke="#2477a0"></path><path d="M784 383L825 319L722 313Z" fill="#0b5583" stroke="#0b5583"></path><path d="M629 600L708 600L709 518Z" fill="#044977" stroke="#044977"></path><path d="M709 518L839 471L718 404Z" fill="#044977" stroke="#044977"></path><path d="M808 178L830 104L696 123Z" fill="#105c89" stroke="#105c89"></path><path d="M900 118L830 104L808 178Z" fill="#1a6995" stroke="#1a6995"></path><path d="M830 104L799 0L696 123Z" fill="#1f709b" stroke="#1f709b"></path><path d="M708 600L763 600L709 518Z" fill="#044977" stroke="#044977"></path><path d="M763 600L839 471L709 518Z" fill="#024271" stroke="#024271"></path><path d="M825 319L900 215L808 178Z" fill="#074f7d" stroke="#074f7d"></path><path d="M900 323L900 215L825 319Z" fill="#044977" stroke="#044977"></path><path d="M830 104L900 0L799 0Z" fill="#2477a0" stroke="#2477a0"></path><path d="M900 374L825 319L784 383Z" fill="#044977" stroke="#044977"></path><path d="M839 471L900 374L784 383Z" fill="#297ea6" stroke="#297ea6"></path><path d="M900 539L900 374L839 471Z" fill="#297ea6" stroke="#297ea6"></path><path d="M900 215L900 118L808 178Z" fill="#297ea6" stroke="#297ea6"></path><path d="M900 118L900 0L830 104Z" fill="#1a6995" stroke="#1a6995"></path><path d="M763 600L900 539L839 471Z" fill="#044977" stroke="#044977"></path><path d="M763 600L900 600L900 539Z" fill="#024271" stroke="#024271"></path></g></svg>