<svg id="visual" viewBox="0 0 900 600" width="900" height="600" xmlns="http://www.w3.org/2000/svg" xmlns:xlink="http://www.w3.org/1999/xlink" version="1.1"><path d="M0 163L13.7 161C27.3 159 54.7 155 82 140C109.3 125 136.7 99 163.8 88C191 77 218 81 245.2 89C272.3 97 299.7 109 327 112C354.3 115 381.7 109 409 101C436.3 93 463.7 83 491 85C518.3 87 545.7 101 573 105C600.3 109 627.7 103 654.8 104C682 105 709 113 736.2 110C763.3 107 790.7 93 818 99C845.3 105 872.7 131 886.3 144L900 157L900 0L886.3 0C872.7 0 845.3 0 818 0C790.7 0 763.3 0 736.2 0C709 0 682 0 654.8 0C627.7 0 600.3 0 573 0C545.7 0 518.3 0 491 0C463.7 0 436.3 0 409 0C381.7 0 354.3 0 327 0C299.7 0 272.3 0 245.2 0C218 0 191 0 163.8 0C136.7 0 109.3 0 82 0C54.7 0 27.3 0 13.7 0L0 0Z" fill="#6198ff"></path><path d="M0 211L13.7 210C27.3 209 54.7 207 82 195C109.3 183 136.7 161 163.8 151C191 141 218 143 245.2 150C272.3 157 299.7 169 327 173C354.3 177 381.7 173 409 167C436.3 161 463.7 153 491 161C518.3 169 545.7 193 573 201C600.3 209 627.7 201 654.8 199C682 197 709 201 736.2 188C763.3 175 790.7 145 818 143C845.3 141 872.7 167 886.3 180L900 193L900 155L886.3 142C872.7 129 845.3 103 818 97C790.7 91 763.3 105 736.2 108C709 111 682 103 654.8 102C627.7 101 600.3 107 573 103C545.7 99 518.3 85 491 83C463.7 81 436.3 91 409 99C381.7 107 354.3 113 327 110C299.7 107 272.3 95 245.2 87C218 79 191 75 163.8 86C136.7 97 109.3 123 82 138C54.7 153 27.3 157 13.7 159L0 161Z" fill="#3c80ff"></path><path d="M0 409L13.7 398C27.3 387 54.7 365 82 362C109.3 359 136.7 375 163.8 376C191 377 218 363 245.2 356C272.3 349 299.7 349 327 356C354.3 363 381.7 377 409 378C436.3 379 463.7 367 491 363C518.3 359 545.7 363 573 352C600.3 341 627.7 315 654.8 318C682 321 709 353 736.2 355C763.3 357 790.7 329 818 339C845.3 349 872.7 397 886.3 421L900 445L900 191L886.3 178C872.7 165 845.3 139 818 141C790.7 143 763.3 173 736.2 186C709 199 682 195 654.8 197C627.7 199 600.3 207 573 199C545.7 191 518.3 167 491 159C463.7 151 436.3 159 409 165C381.7 171 354.3 175 327 171C299.7 167 272.3 155 245.2 148C218 141 191 139 163.8 149C136.7 159 109.3 181 82 193C54.7 205 27.3 207 13.7 208L0 209Z" fill="#0066ff"></path><path d="M0 523L13.7 518C27.3 513 54.7 503 82 504C109.3 505 136.7 517 163.8 522C191 527 218 525 245.2 524C272.3 523 299.7 523 327 519C354.3 515 381.7 507 409 510C436.3 513 463.7 527 491 528C518.3 529 545.7 517 573 519C600.3 521 627.7 537 654.8 533C682 529 709 505 736.2 492C763.3 479 790.7 477 818 484C845.3 491 872.7 507 886.3 515L900 523L900 443L886.3 419C872.7 395 845.3 347 818 337C790.7 327 763.3 355 736.2 353C709 351 682 319 654.8 316C627.7 313 600.3 339 573 350C545.7 361 518.3 357 491 361C463.7 365 436.3 377 409 376C381.7 375 354.3 361 327 354C299.7 347 272.3 347 245.2 354C218 361 191 375 163.8 374C136.7 373 109.3 357 82 360C54.7 363 27.3 385 13.7 396L0 407Z" fill="#0059dd"></path><path d="M0 601L13.7 601C27.3 601 54.7 601 82 601C109.3 601 136.7 601 163.8 601C191 601 218 601 245.2 601C272.3 601 299.7 601 327 601C354.3 601 381.7 601 409 601C436.3 601 463.7 601 491 601C518.3 601 545.7 601 573 601C600.3 601 627.7 601 654.8 601C682 601 709 601 736.2 601C763.3 601 790.7 601 818 601C845.3 601 872.7 601 886.3 601L900 601L900 521L886.3 513C872.7 505 845.3 489 818 482C790.7 475 763.3 477 736.2 490C709 503 682 527 654.8 531C627.7 535 600.3 519 573 517C545.7 515 518.3 527 491 526C463.7 525 436.3 511 409 508C381.7 505 354.3 513 327 517C299.7 521 272.3 521 245.2 522C218 523 191 525 163.8 520C136.7 515 109.3 503 82 502C54.7 501 27.3 511 13.7 516L0 521Z" fill="#004cbb"></path></svg>